<svg xmlns="http://www.w3.org/2000/svg" width="390" height="780" viewBox="0 0 390 780" fill="none">
  <rect width="390" height="780" fill="#FAFAFA"/>
  <rect x="0" y="0" width="390" height="52" fill="#FAFAFA"/>
  <text x="24" y="34" font-family="system-ui,sans-serif" font-size="13" fill="#7A6B8A">9:41</text>
  <text x="195" y="34" font-family="Nunito,system-ui,sans-serif" font-weight="800" font-size="18" fill="url(#g)">Where2Eat</text>
  <rect x="20" y="68" width="350" height="72" rx="14" fill="#F4F2F6" stroke="#E8E4F0"/>
  <circle cx="52" cy="104" r="22" fill="#F2697A" opacity="0.35"/>
  <rect x="88" y="88" width="120" height="14" rx="4" fill="#1E1426" opacity="0.85"/>
  <rect x="88" y="108" width="90" height="10" rx="3" fill="#7A6B8A" opacity="0.6"/>
  <rect x="20" y="156" width="160" height="18" rx="4" fill="#1E1426" opacity="0.75"/>
  <rect x="280" y="156" width="40" height="40" rx="20" fill="#F2697A" opacity="0.2"/>
  <rect x="20" y="190" width="170" height="140" rx="16" fill="#FFFFFF" stroke="#E8E4F0"/>
  <rect x="36" y="206" width="130" height="12" rx="4" fill="#A78BCA" opacity="0.45"/>
  <rect x="36" y="228" width="90" height="10" rx="3" fill="#7A6B8A" opacity="0.5"/>
  <rect x="36" y="288" width="50" height="24" rx="8" fill="#7EDCE2" opacity="0.35"/>
  <rect x="200" y="190" width="170" height="140" rx="16" fill="#FFFFFF" stroke="#E8E4F0"/>
  <rect x="216" y="206" width="130" height="12" rx="4" fill="#D47BBF" opacity="0.4"/>
  <rect x="216" y="228" width="100" height="10" rx="3" fill="#7A6B8A" opacity="0.5"/>
  <defs>
    <linearGradient id="g" x1="0%" y1="0%" x2="100%" y2="100%">
      <stop offset="0%" stop-color="#F2697A"/>
      <stop offset="50%" stop-color="#D47BBF"/>
      <stop offset="100%" stop-color="#A78BCA"/>
    </linearGradient>
  </defs>
</svg>
