<svg xmlns="http://www.w3.org/2000/svg" width="390" height="780" viewBox="0 0 390 780" fill="none">
  <rect width="390" height="780" fill="#FAFAFA"/>
  <rect x="0" y="0" width="390" height="52" fill="#FAFAFA"/>
  <path d="M24 28 L16 36 L24 44" stroke="#A78BCA" stroke-width="2.5" fill="none" stroke-linecap="round"/>
  <text x="195" y="34" text-anchor="middle" font-family="system-ui,sans-serif" font-size="15" font-weight="600" fill="#1E1426">Weekend eats</text>
  <rect x="20" y="72" width="350" height="56" rx="14" fill="#FFFFFF" stroke="#E8E4F0"/>
  <rect x="36" y="88" width="36" height="36" rx="10" fill="#F2697A" opacity="0.25"/>
  <text x="54" y="112" text-anchor="middle" font-size="18"><\</text>
  <rect x="84" y="86" width="200" height="14" rx="4" fill="#1E1426" opacity="0.8"/>
  <rect x="84" y="106" width="140" height="10" rx="3" fill="#7A6B8A" opacity="0.55"/>
  <rect x="20" y="140" width="350" height="56" rx="14" fill="#FFFFFF" stroke="#E8E4F0"/>
  <rect x="36" y="156" width="36" height="36" rx="10" fill="#7EDCE2" opacity="0.25"/>
  <rect x="84" y="154" width="180" height="14" rx="4" fill="#1E1426" opacity="0.75"/>
  <rect x="84" y="174" width="120" height="10" rx="3" fill="#7A6B8A" opacity="0.5"/>
  <rect x="20" y="208" width="350" height="56" rx="14" fill="#FFFFFF" stroke="#E8E4F0"/>
  <rect x="36" y="224" width="36" height="36" rx="10" fill="#D47BBF" opacity="0.22"/>
  <rect x="84" y="222" width="160" height="14" rx="4" fill="#1E1426" opacity="0.75"/>
  <rect x="84" y="242" width="100" height="10" rx="3" fill="#7A6B8A" opacity="0.5"/>
  <rect x="300" y="620" width="70" height="70" rx="35" fill="url(#fab)"/>
  <text x="335" y="665" text-anchor="middle" font-size="28" fill="#FFF"><˛</text>
  <defs>
    <linearGradient id="fab" x1="0%" y1="0%" x2="100%" y2="100%">
      <stop offset="0%" stop-color="#F2697A"/>
      <stop offset="100%" stop-color="#A78BCA"/>
    </linearGradient>
  </defs>
</svg>
