<svg xmlns="http://www.w3.org/2000/svg" width="390" height="780" viewBox="0 0 390 780" fill="none">
  <rect width="390" height="780" fill="#0D0B13"/>
  <path d="M28 24 L18 34 L28 44" stroke="#F2697A" stroke-width="2.5" fill="none" stroke-linecap="round" stroke-linejoin="round"/>
  <circle cx="330" cy="34" r="15" fill="#1C1826" stroke="#322B44"/>
  <circle cx="370" cy="34" r="15" fill="#1C1826" stroke="#322B44"/>

  <rect x="20" y="70" width="60" height="60" rx="18" fill="#1C1826" stroke="#322B44"/>
  <rect x="98" y="82" width="150" height="18" rx="5" fill="#F0EAF8" opacity="0.92"/>

  <circle cx="50" cy="180" r="24" fill="none" stroke="#322B44" stroke-width="5"/>
  <path d="M50 156 A24 24 0 1 1 27 190" fill="none" stroke="url(#g)" stroke-width="5" stroke-linecap="round"/>
  <rect x="90" y="170" width="180" height="12" rx="4" fill="#F0EAF8" opacity="0.85"/>
  <rect x="90" y="190" width="120" height="9" rx="3" fill="#9E8FBA" opacity="0.55"/>

  <rect x="20" y="228" width="52" height="34" rx="14" fill="#F2697A" opacity="0.22"/>
  <rect x="80" y="228" width="52" height="34" rx="14" fill="#1C1826" stroke="#322B44"/>
  <rect x="270" y="228" width="34" height="34" rx="12" fill="#1C1826" stroke="#322B44"/>
  <rect x="316" y="228" width="34" height="34" rx="12" fill="#1C1826" stroke="#322B44"/>

  <rect x="20" y="284" width="350" height="110" rx="20" fill="#1C1826" stroke="#322B44"/>
  <circle cx="30" cy="298" r="5" fill="#F2697A"/>
  <rect x="60" y="298" width="150" height="66" rx="12" fill="#241F30"/>
  <rect x="230" y="298" width="160" height="14" rx="4" fill="#F0EAF8" opacity="0.85"/>
  <rect x="230" y="318" width="130" height="10" rx="3" fill="#9E8FBA" opacity="0.55"/>
  <rect x="230" y="338" width="70" height="16" rx="8" fill="#F2697A" opacity="0.2"/>
  <rect x="230" y="360" width="140" height="10" rx="3" fill="#9E8FBA" opacity="0.5"/>

  <rect x="20" y="406" width="350" height="110" rx="20" fill="#1C1826" stroke="#322B44"/>
  <circle cx="30" cy="420" r="5" fill="#A78BCA"/>
  <rect x="60" y="420" width="60" height="66" rx="12" fill="#241F30"/>
  <rect x="140" y="420" width="150" height="14" rx="4" fill="#F0EAF8" opacity="0.85"/>
  <rect x="140" y="440" width="120" height="10" rx="3" fill="#9E8FBA" opacity="0.55"/>
  <rect x="140" y="460" width="100" height="9" rx="3" fill="#9E8FBA" opacity="0.5"/>

  <rect x="20" y="528" width="350" height="110" rx="20" fill="#1C1826" stroke="#322B44"/>
  <circle cx="30" cy="542" r="5" fill="#D47BBF"/>
  <rect x="60" y="542" width="60" height="66" rx="12" fill="#241F30"/>
  <rect x="140" y="542" width="130" height="14" rx="4" fill="#F0EAF8" opacity="0.85"/>
  <rect x="140" y="562" width="110" height="10" rx="3" fill="#9E8FBA" opacity="0.55"/>

  <rect x="182" y="676" width="188" height="56" rx="28" fill="url(#g)"/>
  <rect x="204" y="696" width="18" height="18" rx="5" fill="#FFFFFF" opacity="0.92"/>
  <circle cx="209" cy="701" r="1.6" fill="url(#g)"/>
  <circle cx="217" cy="709" r="1.6" fill="url(#g)"/>
  <text x="290" y="710" text-anchor="middle" font-family="DM Sans,system-ui,sans-serif" font-weight="700" font-size="16" fill="#FFFFFF">Random pick</text>

  <defs>
    <linearGradient id="g" x1="0%" y1="0%" x2="100%" y2="100%">
      <stop offset="0%" stop-color="#F2697A"/>
      <stop offset="50%" stop-color="#D47BBF"/>
      <stop offset="100%" stop-color="#A78BCA"/>
    </linearGradient>
  </defs>
</svg>
