<svg xmlns="http://www.w3.org/2000/svg" width="390" height="780" viewBox="0 0 390 780" fill="none">
  <rect width="390" height="780" fill="#0D0B13"/>
  <text x="195" y="42" text-anchor="middle" font-family="Nunito,system-ui,sans-serif" font-weight="800" font-size="18" fill="#F0EAF8" opacity="0.92">Profile</text>

  <circle cx="195" cy="140" r="50" fill="#241F30" stroke="#322B44"/>
  <circle cx="195" cy="140" r="50" fill="url(#g)" opacity="0.22"/>
  <rect x="130" y="206" width="130" height="16" rx="4" fill="#F0EAF8" opacity="0.9"/>
  <rect x="160" y="228" width="70" height="10" rx="3" fill="#9E8FBA" opacity="0.6"/>

  <rect x="24" y="270" width="342" height="120" rx="20" fill="#1C1826" stroke="#322B44"/>
  <circle cx="94" cy="308" r="14" fill="#F2697A"/>
  <rect x="80" y="330" width="28" height="9" rx="3" fill="#F0EAF8" opacity="0.85"/>
  <rect x="72" y="344" width="44" height="7" rx="3" fill="#9E8FBA" opacity="0.55"/>

  <circle cx="195" cy="308" r="14" fill="#A78BCA"/>
  <rect x="180" y="330" width="30" height="9" rx="3" fill="#F0EAF8" opacity="0.85"/>
  <rect x="172" y="344" width="46" height="7" rx="3" fill="#9E8FBA" opacity="0.55"/>

  <circle cx="296" cy="308" r="14" fill="#D47BBF"/>
  <rect x="281" y="330" width="30" height="9" rx="3" fill="#F0EAF8" opacity="0.85"/>
  <rect x="270" y="344" width="52" height="7" rx="3" fill="#9E8FBA" opacity="0.55"/>

  <rect x="24" y="414" width="342" height="58" rx="16" fill="#1C1826" stroke="#322B44"/>
  <rect x="44" y="434" width="120" height="18" rx="9" fill="#7EDCE2" opacity="0.28"/>
  <rect x="184" y="438" width="130" height="12" rx="3" fill="#F0EAF8" opacity="0.75"/>
  <path d="M340 438 l8 8 l-8 8" stroke="#9E8FBA" stroke-width="2" fill="none" stroke-linecap="round" stroke-linejoin="round"/>

  <rect x="24" y="490" width="342" height="58" rx="16" fill="#1C1826" stroke="#322B44"/>
  <rect x="44" y="510" width="140" height="12" rx="3" fill="#F0EAF8" opacity="0.75"/>
  <path d="M340 514 l8 8 l-8 8" stroke="#9E8FBA" stroke-width="2" fill="none" stroke-linecap="round" stroke-linejoin="round"/>

  <rect x="24" y="566" width="342" height="58" rx="16" fill="#1C1826" stroke="#322B44"/>
  <rect x="44" y="586" width="110" height="12" rx="3" fill="#F0EAF8" opacity="0.75"/>
  <path d="M340 590 l8 8 l-8 8" stroke="#9E8FBA" stroke-width="2" fill="none" stroke-linecap="round" stroke-linejoin="round"/>

  <defs>
    <linearGradient id="g" x1="0%" y1="0%" x2="100%" y2="100%">
      <stop offset="0%" stop-color="#F2697A"/>
      <stop offset="50%" stop-color="#D47BBF"/>
      <stop offset="100%" stop-color="#A78BCA"/>
    </linearGradient>
  </defs>
</svg>
